<svg width="134" height="41" viewBox="0 0 134 41" fill="none" xmlns="http://www.w3.org/2000/svg">
<g clip-path="url(#clip0_364_3699)">
<path d="M51.2773 29.3241H63.2293V25.7241H55.5253V12.1641H51.2773V29.3241Z" fill="#2F234F"/>
<path d="M70.3105 26.9232C68.6065 26.9232 67.7185 25.4352 67.7185 23.2032C67.7185 20.9712 68.6065 19.4592 70.3105 19.4592C72.0145 19.4592 72.9265 20.9712 72.9265 23.2032C72.9265 25.4352 72.0145 26.9232 70.3105 26.9232ZM70.3345 29.7072C74.2945 29.7072 76.8865 26.8992 76.8865 23.2032C76.8865 19.5072 74.2945 16.6992 70.3345 16.6992C66.3985 16.6992 63.7585 19.5072 63.7585 23.2032C63.7585 26.8992 66.3985 29.7072 70.3345 29.7072Z" fill="#2F234F"/>
<path d="M83.7406 33.5718C85.5646 33.5718 87.1726 33.1638 88.2526 32.2038C89.2366 31.3158 89.8846 29.9718 89.8846 28.1238V17.0358H86.1406V18.3558H86.0926C85.3726 17.3238 84.2686 16.6758 82.6366 16.6758C79.5886 16.6758 77.4766 19.2198 77.4766 22.8198C77.4766 26.5878 80.0446 28.6518 82.8046 28.6518C84.2926 28.6518 85.2286 28.0518 85.9486 27.2358H86.0446V28.4598C86.0446 29.9478 85.3486 30.8118 83.6926 30.8118C82.3966 30.8118 81.7486 30.2598 81.5326 29.6118H77.7406C78.1246 32.1798 80.3566 33.5718 83.7406 33.5718ZM83.7166 25.7478C82.2526 25.7478 81.2926 24.5478 81.2926 22.6998C81.2926 20.8278 82.2526 19.6278 83.7166 19.6278C85.3486 19.6278 86.2126 21.0198 86.2126 22.6758C86.2126 24.4038 85.4206 25.7478 83.7166 25.7478Z" fill="#2F234F"/>
<path d="M97.5835 26.9232C95.8795 26.9232 94.9915 25.4352 94.9915 23.2032C94.9915 20.9712 95.8795 19.4592 97.5835 19.4592C99.2875 19.4592 100.199 20.9712 100.199 23.2032C100.199 25.4352 99.2875 26.9232 97.5835 26.9232ZM97.6075 29.7072C101.567 29.7072 104.159 26.8992 104.159 23.2032C104.159 19.5072 101.567 16.6992 97.6075 16.6992C93.6715 16.6992 91.0315 19.5072 91.0315 23.2032C91.0315 26.8992 93.6715 29.7072 97.6075 29.7072Z" fill="#2F234F"/>
<path d="M105.302 29.3241H109.214V17.0361H105.302V29.3241ZM105.302 15.3321H109.214V12.1641H105.302V15.3321Z" fill="#2F234F"/>
<path d="M110.911 33.3798H114.823V28.0518H114.871C115.639 29.0838 116.767 29.7078 118.351 29.7078C121.567 29.7078 123.703 27.1638 123.703 23.1798C123.703 19.4838 121.711 16.6758 118.447 16.6758C116.767 16.6758 115.567 17.4198 114.727 18.5238H114.655V17.0358H110.911V33.3798ZM117.343 26.6838C115.663 26.6838 114.703 25.3158 114.703 23.3238C114.703 21.3318 115.567 19.8198 117.271 19.8198C118.951 19.8198 119.743 21.2118 119.743 23.3238C119.743 25.4118 118.831 26.6838 117.343 26.6838Z" fill="#2F234F"/>
<path d="M130.072 29.7078C133.288 29.7078 135.664 28.3158 135.664 25.6278C135.664 22.4838 133.12 21.9318 130.96 21.5718C129.4 21.2838 128.008 21.1638 128.008 20.2998C128.008 19.5318 128.752 19.1718 129.712 19.1718C130.792 19.1718 131.536 19.5078 131.68 20.6118H135.28C135.088 18.1878 133.216 16.6758 129.736 16.6758C126.832 16.6758 124.432 18.0198 124.432 20.6118C124.432 23.4918 126.712 24.0678 128.848 24.4278C130.48 24.7158 131.968 24.8358 131.968 25.9398C131.968 26.7318 131.224 27.1638 130.048 27.1638C128.752 27.1638 127.936 26.5638 127.792 25.3398H124.096C124.216 28.0518 126.472 29.7078 130.072 29.7078Z" fill="#2F234F"/>
<path fill-rule="evenodd" clip-rule="evenodd" d="M20.1015 40.3222C31.1473 40.3222 40.1015 31.3679 40.1015 20.3222C40.1015 9.27656 31.1473 0.322266 20.1015 0.322266C9.05585 0.322266 0.101562 9.27656 0.101562 20.3222C0.101562 31.3679 9.05585 40.3222 20.1015 40.3222ZM23.1885 15.7748C24.8933 14.0699 24.8933 11.3058 23.1885 9.60092C21.4836 7.89604 18.7195 7.89604 17.0146 9.60092C15.3098 11.3058 15.3098 14.0699 17.0146 15.7748L20.1015 18.8617L23.1885 15.7748ZM24.649 23.4092C26.3539 25.1141 29.118 25.1141 30.8229 23.4092C32.5277 21.7043 32.5277 18.9402 30.8229 17.2353C29.118 15.5305 26.3539 15.5305 24.649 17.2353L21.5621 20.3223L24.649 23.4092ZM23.1885 31.0436C24.8933 29.3387 24.8933 26.5746 23.1885 24.8697L20.1015 21.7828L17.0146 24.8697C15.3098 26.5746 15.3098 29.3387 17.0146 31.0436C18.7195 32.7485 21.4836 32.7485 23.1885 31.0436ZM9.38019 23.4092C7.67535 21.7043 7.67535 18.9402 9.38019 17.2353C11.0851 15.5305 13.8492 15.5305 15.5541 17.2353L18.641 20.3223L15.5541 23.4092C13.8492 25.1141 11.0851 25.1141 9.38019 23.4092Z" fill="#7F57F1"/>
</g>
<defs>
<clipPath id="clip0_364_3699">
<rect width="170" height="41" fill="white"/>
</clipPath>
</defs>
</svg>
