<svg width="204" height="51" viewBox="0 0 204 51" fill="none" xmlns="http://www.w3.org/2000/svg">
<path d="M59.4062 35.4797H74.0063V31.1597H64.5954V14.8877H59.4062V35.4797Z" fill="#2D2D2D"/>
<path d="M82.657 32.6008C80.5754 32.6008 79.4907 30.8152 79.4907 28.1368C79.4907 25.4584 80.5754 23.644 82.657 23.644C84.7385 23.644 85.8526 25.4584 85.8526 28.1368C85.8526 30.8152 84.7385 32.6008 82.657 32.6008ZM82.6863 35.9416C87.5236 35.9416 90.6899 32.572 90.6899 28.1368C90.6899 23.7016 87.5236 20.332 82.6863 20.332C77.8782 20.332 74.6533 23.7016 74.6533 28.1368C74.6533 32.572 77.8782 35.9416 82.6863 35.9416Z" fill="#2D2D2D"/>
<path d="M99.061 40.5789C101.289 40.5789 103.253 40.0893 104.573 38.9373C105.775 37.8717 106.566 36.2589 106.566 34.0413V20.7357H101.993V22.3197H101.934C101.055 21.0813 99.706 20.3037 97.7124 20.3037C93.9891 20.3037 91.4092 23.3565 91.4092 27.6765C91.4092 32.1981 94.5461 34.6749 97.9176 34.6749C99.7353 34.6749 100.879 33.9549 101.758 32.9757H101.875V34.4445C101.875 36.2301 101.025 37.2669 99.0024 37.2669C97.4192 37.2669 96.6277 36.6045 96.3638 35.8269H91.7317C92.2007 38.9085 94.9273 40.5789 99.061 40.5789ZM99.0317 31.1901C97.2433 31.1901 96.0706 29.7501 96.0706 27.5325C96.0706 25.2861 97.2433 23.8461 99.0317 23.8461C101.025 23.8461 102.081 25.5165 102.081 27.5037C102.081 29.5773 101.113 31.1901 99.0317 31.1901Z" fill="#2D2D2D"/>
<path d="M115.97 32.6008C113.889 32.6008 112.804 30.8152 112.804 28.1368C112.804 25.4584 113.889 23.644 115.97 23.644C118.052 23.644 119.166 25.4584 119.166 28.1368C119.166 30.8152 118.052 32.6008 115.97 32.6008ZM116 35.9416C120.837 35.9416 124.004 32.572 124.004 28.1368C124.004 23.7016 120.837 20.332 116 20.332C111.192 20.332 107.967 23.7016 107.967 28.1368C107.967 32.572 111.192 35.9416 116 35.9416Z" fill="#2D2D2D"/>
<path d="M125.399 35.4797H130.178V20.7341H125.399V35.4797ZM125.399 18.6893H130.178V14.8877H125.399V18.6893Z" fill="#2D2D2D"/>
<path d="M132.251 40.3485H137.03V33.9549H137.088C138.026 35.1933 139.404 35.9421 141.339 35.9421C145.268 35.9421 147.877 32.8893 147.877 28.1085C147.877 23.6733 145.444 20.3037 141.457 20.3037C139.404 20.3037 137.939 21.1965 136.912 22.5213H136.824V20.7357H132.251V40.3485ZM140.108 32.3133C138.056 32.3133 136.883 30.6717 136.883 28.2813C136.883 25.8909 137.939 24.0765 140.02 24.0765C142.072 24.0765 143.04 25.7469 143.04 28.2813C143.04 30.7869 141.926 32.3133 140.108 32.3133Z" fill="#2D2D2D"/>
<path d="M155.657 35.9421C159.586 35.9421 162.488 34.2717 162.488 31.0461C162.488 27.2733 159.381 26.6109 156.742 26.1789C154.837 25.8333 153.136 25.6893 153.136 24.6525C153.136 23.7309 154.045 23.2989 155.218 23.2989C156.537 23.2989 157.446 23.7021 157.622 25.0269H162.019C161.785 22.1181 159.498 20.3037 155.247 20.3037C151.7 20.3037 148.768 21.9165 148.768 25.0269C148.768 28.4829 151.553 29.1741 154.162 29.6061C156.156 29.9517 157.974 30.0957 157.974 31.4205C157.974 32.3709 157.065 32.8893 155.628 32.8893C154.045 32.8893 153.048 32.1693 152.872 30.7005H148.357C148.504 33.9549 151.26 35.9421 155.657 35.9421Z" fill="#2D2D2D"/>
<path d="M168.981 35.913C171.063 35.913 172.382 35.1066 173.467 33.6666H173.555V35.481H178.128V20.7354H173.35V28.9722C173.35 30.729 172.353 31.9386 170.711 31.9386C169.186 31.9386 168.454 31.0458 168.454 29.433V20.7354H163.704V30.4122C163.704 33.6954 165.522 35.913 168.981 35.913Z" fill="#2D2D2D"/>
<path d="M180.205 35.4813H184.984V27.2157C184.984 25.4589 185.863 24.2205 187.359 24.2205C188.795 24.2205 189.469 25.1421 189.469 26.7261V35.4813H194.248V27.2157C194.248 25.4589 195.098 24.2205 196.623 24.2205C198.059 24.2205 198.734 25.1421 198.734 26.7261V35.4813H203.512V25.8909C203.512 22.5789 201.812 20.3037 198.411 20.3037C196.476 20.3037 194.864 21.1101 193.691 22.8957H193.632C192.87 21.3117 191.375 20.3037 189.411 20.3037C187.241 20.3037 185.805 21.3117 184.867 22.8381H184.779V20.7357H180.205V35.4813Z" fill="#2D2D2D"/>
<path fill-rule="evenodd" clip-rule="evenodd" d="M10.5707 5.59771C8.82306 6.79814 7.24273 8.21744 5.87086 9.81515C11.477 9.30386 18.5993 10.1387 26.8683 14.2003C35.6984 18.5373 42.8088 18.684 47.7574 17.7463C47.3083 16.4108 46.743 15.1273 46.0734 13.9071C40.4087 14.494 33.1466 13.7172 24.6831 9.56024C19.3088 6.92048 14.5713 5.83308 10.5707 5.59771ZM42.7644 9.28025C38.2909 4.37027 31.7899 1.28027 24.5541 1.28027C22.4292 1.28027 20.3675 1.5468 18.402 2.04765C21.064 2.76118 23.8919 3.80506 26.8683 5.26699C33.0647 8.3105 38.4144 9.29046 42.7644 9.28025ZM48.8154 22.434C42.8371 23.5936 34.5817 23.3554 24.6831 18.4935C15.4291 13.9482 8.06369 14.0054 3.09619 15.0898C2.83979 15.1458 2.58942 15.2046 2.3451 15.2658C1.69473 16.6552 1.17558 18.1164 0.80309 19.6336C1.20093 19.5292 1.61204 19.43 2.0362 19.3374C8.06264 18.0218 16.5775 18.0789 26.8683 23.1336C36.1224 27.6789 43.4878 27.6217 48.4554 26.5372C48.6255 26.5002 48.7932 26.4618 48.9582 26.4222C48.9762 26.0438 48.9853 25.663 48.9853 25.2802C48.9853 24.3172 48.9276 23.3674 48.8154 22.434ZM48.1605 31.487C42.2402 32.5038 34.2252 32.1135 24.6831 27.4268C15.4291 22.8814 8.06369 22.9387 3.09619 24.0231C1.99356 24.2637 1.00164 24.5569 0.126626 24.8664C0.12424 25.004 0.123047 25.142 0.123047 25.2802C0.123047 38.5351 11.0612 49.2802 24.5541 49.2802C35.8622 49.2802 45.3759 41.7333 48.1605 31.487Z" fill="#7ADFFF"/>
</svg>
