<svg width="204" height="50" viewBox="0 0 204 50" fill="none" xmlns="http://www.w3.org/2000/svg">
<path d="M61.5332 35.1898H75.8756V30.8697H66.6308V14.5977H61.5332V35.1898Z" fill="#2D2D2D"/>
<path d="M84.3722 32.3089C82.3274 32.3089 81.2618 30.5233 81.2618 27.8449C81.2618 25.1665 82.3274 23.3521 84.3722 23.3521C86.417 23.3521 87.5114 25.1665 87.5114 27.8449C87.5114 30.5233 86.417 32.3089 84.3722 32.3089ZM84.401 35.6497C89.153 35.6497 92.2634 32.2801 92.2634 27.8449C92.2634 23.4097 89.153 20.04 84.401 20.04C79.6778 20.04 76.5098 23.4097 76.5098 27.8449C76.5098 32.2801 79.6778 35.6497 84.401 35.6497Z" fill="#2D2D2D"/>
<path d="M100.489 40.287C102.678 40.287 104.608 39.7974 105.904 38.6454C107.085 37.5798 107.862 35.967 107.862 33.7494V20.4437H103.369V22.0277H103.312C102.448 20.7893 101.123 20.0117 99.1647 20.0117C95.5071 20.0117 92.9727 23.0645 92.9727 27.3846C92.9727 31.9062 96.0543 34.383 99.3663 34.383C101.152 34.383 102.275 33.663 103.139 32.6838H103.254V34.1526C103.254 35.9382 102.419 36.975 100.432 36.975C98.8767 36.975 98.0991 36.3126 97.8399 35.535H93.2895C93.7503 38.6166 96.4287 40.287 100.489 40.287ZM100.461 30.8982C98.7039 30.8982 97.5519 29.4582 97.5519 27.2406C97.5519 24.9941 98.7039 23.5541 100.461 23.5541C102.419 23.5541 103.456 25.2245 103.456 27.2118C103.456 29.2854 102.505 30.8982 100.461 30.8982Z" fill="#2D2D2D"/>
<path d="M117.1 32.3089C115.055 32.3089 113.989 30.5233 113.989 27.8449C113.989 25.1665 115.055 23.3521 117.1 23.3521C119.144 23.3521 120.238 25.1665 120.238 27.8449C120.238 30.5233 119.144 32.3089 117.1 32.3089ZM117.129 35.6497C121.88 35.6497 124.99 32.2801 124.99 27.8449C124.99 23.4097 121.88 20.04 117.129 20.04C112.405 20.04 109.237 23.4097 109.237 27.8449C109.237 32.2801 112.405 35.6497 117.129 35.6497Z" fill="#2D2D2D"/>
<path d="M126.36 35.1898H131.055V20.4441H126.36V35.1898ZM126.36 18.3993H131.055V14.5977H126.36V18.3993Z" fill="#2D2D2D"/>
<path d="M133.092 40.0566H137.786V33.663H137.844C138.765 34.9014 140.119 35.6502 142.02 35.6502C145.879 35.6502 148.442 32.5974 148.442 27.8166C148.442 23.3813 146.052 20.0117 142.135 20.0117C140.119 20.0117 138.679 20.9045 137.671 22.2293H137.585V20.4437H133.092V40.0566ZM140.81 32.0214C138.794 32.0214 137.642 30.3798 137.642 27.9894C137.642 25.599 138.679 23.7845 140.724 23.7845C142.74 23.7845 143.69 25.455 143.69 27.9894C143.69 30.495 142.596 32.0214 140.81 32.0214Z" fill="#2D2D2D"/>
<path d="M156.085 35.6502C159.944 35.6502 162.796 33.9798 162.796 30.7542C162.796 26.9814 159.743 26.319 157.151 25.887C155.279 25.5413 153.608 25.3973 153.608 24.3605C153.608 23.4389 154.501 23.0069 155.653 23.0069C156.949 23.0069 157.842 23.4101 158.015 24.7349H162.335C162.104 21.8261 159.858 20.0117 155.682 20.0117C152.197 20.0117 149.317 21.6245 149.317 24.7349C149.317 28.191 152.053 28.8822 154.616 29.3142C156.575 29.6598 158.36 29.8038 158.36 31.1286C158.36 32.079 157.468 32.5974 156.056 32.5974C154.501 32.5974 153.522 31.8774 153.349 30.4086H148.914C149.058 33.663 151.765 35.6502 156.085 35.6502Z" fill="#2D2D2D"/>
<path d="M169.173 35.6201C171.218 35.6201 172.514 34.8137 173.58 33.3737H173.666V35.1881H178.159V20.4424H173.464V28.6792C173.464 30.436 172.485 31.6456 170.872 31.6456C169.375 31.6456 168.655 30.7528 168.655 29.14V20.4424H163.989V30.1192C163.989 33.4025 165.775 35.6201 169.173 35.6201Z" fill="#2D2D2D"/>
<path d="M180.202 35.1894H184.897V26.9238C184.897 25.1669 185.761 23.9285 187.229 23.9285C188.641 23.9285 189.303 24.8501 189.303 26.4342V35.1894H193.997V26.9238C193.997 25.1669 194.833 23.9285 196.33 23.9285C197.741 23.9285 198.404 24.8501 198.404 26.4342V35.1894H203.098V25.599C203.098 22.2869 201.428 20.0117 198.087 20.0117C196.186 20.0117 194.602 20.8181 193.45 22.6037H193.393C192.644 21.0197 191.175 20.0117 189.245 20.0117C187.114 20.0117 185.703 21.0197 184.781 22.5461H184.695V20.4437H180.202V35.1894Z" fill="#2D2D2D"/>
<path fill-rule="evenodd" clip-rule="evenodd" d="M24.121 48.3869C37.376 48.3869 48.121 37.6417 48.121 24.3868C48.121 11.1319 37.376 0.386719 24.121 0.386719C10.8662 0.386719 0.121094 11.1319 0.121094 24.3868C0.121094 37.6417 10.8662 48.3869 24.121 48.3869ZM27.8254 18.9299C29.8712 16.884 29.8712 13.5671 27.8254 11.5212C25.7796 9.4753 22.4626 9.4753 20.4168 11.5212C18.371 13.5671 18.371 16.884 20.4168 18.9299L24.121 22.6342L27.8254 18.9299ZM29.578 28.0912C31.6239 30.1371 34.9408 30.1371 36.9867 28.0912C39.0325 26.0453 39.0325 22.7284 36.9867 20.6825C34.9408 18.6367 31.6239 18.6367 29.578 20.6825L25.8738 24.3869L29.578 28.0912ZM27.8254 37.2526C29.8712 35.2067 29.8712 31.8897 27.8254 29.8438L24.121 26.1395L20.4168 29.8438C18.371 31.8897 18.371 35.2067 20.4168 37.2526C22.4626 39.2985 25.7796 39.2985 27.8254 37.2526ZM11.2554 28.0912C9.20964 26.0453 9.20964 22.7284 11.2554 20.6825C13.3014 18.6367 16.6183 18.6367 18.6642 20.6825L22.3684 24.3869L18.6642 28.0912C16.6183 30.1371 13.3014 30.1371 11.2554 28.0912Z" fill="#FF7ADA"/>
</svg>
