<svg width="204" height="51" viewBox="0 0 204 51" fill="none" xmlns="http://www.w3.org/2000/svg">
<g clip-path="url(#clip0_240_15578)">
<path d="M59.8359 35.6599H74.3491V31.3336H64.9942V15.0381H59.8359V35.6599Z" fill="#2D2D2D"/>
<path d="M82.9482 32.7739C80.879 32.7739 79.8008 30.9857 79.8008 28.3034C79.8008 25.6211 80.879 23.8041 82.9482 23.8041C85.0173 23.8041 86.1248 25.6211 86.1248 28.3034C86.1248 30.9857 85.0173 32.7739 82.9482 32.7739ZM82.9773 36.1195C87.7859 36.1195 90.9333 32.745 90.9333 28.3034C90.9333 23.8618 87.7859 20.4873 82.9773 20.4873C78.1979 20.4873 74.9922 23.8618 74.9922 28.3034C74.9922 32.745 78.1979 36.1195 82.9773 36.1195Z" fill="#2D2D2D"/>
<path d="M99.2567 40.7645C101.472 40.7645 103.424 40.2742 104.736 39.1205C105.93 38.0534 106.717 36.4382 106.717 34.2174V20.8926H102.171V22.4789H102.113C101.238 21.2387 99.8978 20.46 97.9161 20.46C94.215 20.46 91.6504 23.5172 91.6504 27.8434C91.6504 32.3716 94.7687 34.852 98.1201 34.852C99.927 34.852 101.064 34.1309 101.938 33.1503H102.054V34.6212C102.054 36.4094 101.209 37.4477 99.1984 37.4477C97.6247 37.4477 96.8378 36.7843 96.5755 36.0056H91.971C92.4372 39.0917 95.1475 40.7645 99.2567 40.7645ZM99.2275 31.3621C97.4498 31.3621 96.2841 29.92 96.2841 27.6992C96.2841 25.4496 97.4498 24.0075 99.2275 24.0075C101.209 24.0075 102.258 25.6803 102.258 27.6704C102.258 29.747 101.297 31.3621 99.2275 31.3621Z" fill="#2D2D2D"/>
<path d="M116.066 32.7739C113.997 32.7739 112.919 30.9857 112.919 28.3034C112.919 25.6211 113.997 23.8041 116.066 23.8041C118.135 23.8041 119.243 25.6211 119.243 28.3034C119.243 30.9857 118.135 32.7739 116.066 32.7739ZM116.095 36.1195C120.904 36.1195 124.051 32.745 124.051 28.3034C124.051 23.8618 120.904 20.4873 116.095 20.4873C111.316 20.4873 108.11 23.8618 108.11 28.3034C108.11 32.745 111.316 36.1195 116.095 36.1195Z" fill="#2D2D2D"/>
<path d="M125.438 35.6599H130.188V20.8929H125.438V35.6599ZM125.438 18.8452H130.188V15.0381H125.438V18.8452Z" fill="#2D2D2D"/>
<path d="M132.247 40.5338H136.997V34.1309H137.056C137.988 35.3711 139.358 36.121 141.281 36.121C145.186 36.121 147.78 33.0638 147.78 28.2761C147.78 23.8344 145.361 20.46 141.398 20.46C139.358 20.46 137.901 21.3541 136.881 22.6808H136.793V20.8926H132.247V40.5338ZM140.057 32.4869C138.017 32.4869 136.852 30.843 136.852 28.4491C136.852 26.0552 137.901 24.2382 139.97 24.2382C142.01 24.2382 142.972 25.911 142.972 28.4491C142.972 30.9583 141.864 32.4869 140.057 32.4869Z" fill="#2D2D2D"/>
<path d="M155.515 36.121C159.421 36.121 162.306 34.4482 162.306 31.2179C162.306 27.4396 159.217 26.7763 156.594 26.3437C154.699 25.9976 153.009 25.8534 153.009 24.8151C153.009 23.8921 153.912 23.4595 155.078 23.4595C156.39 23.4595 157.293 23.8633 157.468 25.19H161.839C161.606 22.277 159.333 20.46 155.107 20.46C151.581 20.46 148.667 22.0751 148.667 25.19C148.667 28.651 151.435 29.3432 154.029 29.7758C156.011 30.1219 157.818 30.2661 157.818 31.5928C157.818 32.5446 156.914 33.0638 155.486 33.0638C153.913 33.0638 152.922 32.3427 152.747 30.8718H148.259C148.405 34.1309 151.144 36.121 155.515 36.121Z" fill="#2D2D2D"/>
<path d="M168.759 36.0912C170.829 36.0912 172.14 35.2836 173.218 33.8415H173.306V35.6585H177.852V20.8916H173.102V29.1403C173.102 30.8997 172.111 32.111 170.479 32.111C168.963 32.111 168.235 31.2169 168.235 29.6018V20.8916H163.514V30.5824C163.514 33.8704 165.321 36.0912 168.759 36.0912Z" fill="#2D2D2D"/>
<path d="M179.918 35.6595H184.668V27.382C184.668 25.6226 185.543 24.3824 187.029 24.3824C188.457 24.3824 189.127 25.3054 189.127 26.8917V35.6595H193.877V27.382C193.877 25.6226 194.723 24.3824 196.238 24.3824C197.666 24.3824 198.336 25.3054 198.336 26.8917V35.6595H203.087V26.0552C203.087 22.7385 201.396 20.46 198.016 20.46C196.092 20.46 194.489 21.2675 193.324 23.0557H193.265C192.508 21.4694 191.021 20.46 189.069 20.46C186.912 20.46 185.484 21.4694 184.552 22.998H184.464V20.8926H179.918V35.6595Z" fill="#2D2D2D"/>
<path d="M30.8542 3.24107L26.0785 1.97461L22.0538 16.8396L18.4203 3.41938L13.6444 4.68585L17.5702 19.1854L7.792 9.50827L4.29584 12.9683L15.0213 23.583L1.66445 20.041L0.384766 24.7674L14.9788 28.6375C14.8117 27.9243 14.7233 27.1811 14.7233 26.4175C14.7233 21.0126 19.1506 16.6311 24.612 16.6311C30.0733 16.6311 34.5006 21.0126 34.5006 26.4175C34.5006 27.1762 34.4133 27.9148 34.2483 28.6238L47.5116 32.1409L48.7912 27.4145L34.1391 23.529L47.4969 19.9868L46.2171 15.2604L31.5657 19.1456L41.3439 9.46854L37.8477 6.00851L27.271 16.4759L30.8542 3.24107Z" fill="#F97316"/>
<path d="M34.2354 28.6787C33.826 30.3919 32.9615 31.931 31.7754 33.1641L41.384 42.6735L44.8802 39.2135L34.2354 28.6787Z" fill="#F97316"/>
<path d="M31.6784 33.2627C30.478 34.4761 28.961 35.3816 27.2598 35.8482L30.7562 48.7621L35.532 47.4956L31.6784 33.2627Z" fill="#F97316"/>
<path d="M27.0809 35.896C26.2916 36.0968 25.4643 36.2036 24.6117 36.2036C23.6983 36.2036 22.8139 36.081 21.9742 35.8516L18.4746 48.7772L23.2504 50.0436L27.0809 35.896Z" fill="#F97316"/>
<path d="M21.8045 35.8044C20.1293 35.3146 18.6393 34.3975 17.4634 33.1807L7.83105 42.7134L11.3272 46.1735L21.8045 35.8044Z" fill="#F97316"/>
<path d="M17.3846 33.0978C16.2288 31.8732 15.387 30.3547 14.9863 28.668L1.67969 32.1966L2.95936 36.9231L17.3846 33.0978Z" fill="#F97316"/>
</g>
<defs>
<clipPath id="clip0_240_15578">
<rect width="204" height="49.2712" fill="white" transform="translate(0 0.865234)"/>
</clipPath>
</defs>
</svg>
