<svg width="205" height="50" viewBox="0 0 205 50" fill="none" xmlns="http://www.w3.org/2000/svg">
<g clip-path="url(#clip0_240_15538)">
<path d="M61.4072 35.1115H75.8345V30.8943H66.535V15.0098H61.4072V35.1115Z" fill="#2D2D2D"/>
<path d="M84.3806 32.299C82.3237 32.299 81.2518 30.5559 81.2518 27.9412C81.2518 25.3266 82.3237 23.5554 84.3806 23.5554C86.4375 23.5554 87.5384 25.3266 87.5384 27.9412C87.5384 30.5559 86.4375 32.299 84.3806 32.299ZM84.4096 35.5602C89.1897 35.5602 92.3185 32.2708 92.3185 27.9412C92.3185 23.6116 89.1897 20.3223 84.4096 20.3223C79.6584 20.3223 76.4717 23.6116 76.4717 27.9412C76.4717 32.2708 79.6584 35.5602 84.4096 35.5602Z" fill="#2D2D2D"/>
<path d="M100.595 40.0884C102.797 40.0884 104.738 39.6104 106.042 38.4858C107.23 37.4456 108.012 35.8712 108.012 33.7064V20.7176H103.493V22.2639H103.435C102.565 21.055 101.233 20.2959 99.2628 20.2959C95.5836 20.2959 93.0342 23.276 93.0342 27.4932C93.0342 31.9071 96.134 34.3249 99.4656 34.3249C101.262 34.3249 102.392 33.6221 103.261 32.6662H103.377V34.1C103.377 35.8431 102.536 36.8552 100.538 36.8552C98.9731 36.8552 98.1909 36.2086 97.9302 35.4495H93.3529C93.8164 38.4577 96.5106 40.0884 100.595 40.0884ZM100.566 30.9231C98.7993 30.9231 97.6405 29.5174 97.6405 27.3526C97.6405 25.1597 98.7993 23.754 100.566 23.754C102.536 23.754 103.579 25.3846 103.579 27.3245C103.579 29.3487 102.623 30.9231 100.566 30.9231Z" fill="#2D2D2D"/>
<path d="M117.302 32.299C115.246 32.299 114.174 30.5559 114.174 27.9412C114.174 25.3266 115.246 23.5554 117.302 23.5554C119.359 23.5554 120.46 25.3266 120.46 27.9412C120.46 30.5559 119.359 32.299 117.302 32.299ZM117.331 35.5602C122.112 35.5602 125.24 32.2708 125.24 27.9412C125.24 23.6116 122.112 20.3223 117.331 20.3223C112.58 20.3223 109.394 23.6116 109.394 27.9412C109.394 32.2708 112.58 35.5602 117.331 35.5602Z" fill="#2D2D2D"/>
<path d="M126.622 35.1115H131.344V20.717H126.622V35.1115ZM126.622 18.7209H131.344V15.0098H126.622V18.7209Z" fill="#2D2D2D"/>
<path d="M133.392 39.8634H138.114V33.6221H138.172C139.099 34.831 140.46 35.562 142.372 35.562C146.254 35.562 148.833 32.5818 148.833 27.9149C148.833 23.5853 146.428 20.2959 142.488 20.2959C140.46 20.2959 139.012 21.1674 137.998 22.4607H137.911V20.7176H133.392V39.8634ZM141.156 32.0196C139.128 32.0196 137.969 30.417 137.969 28.0836C137.969 25.7501 139.012 23.9789 141.069 23.9789C143.097 23.9789 144.053 25.6095 144.053 28.0836C144.053 30.5295 142.952 32.0196 141.156 32.0196Z" fill="#2D2D2D"/>
<path d="M156.523 35.562C160.405 35.562 163.273 33.9313 163.273 30.7825C163.273 27.0996 160.202 26.4529 157.595 26.0312C155.712 25.6938 154.032 25.5533 154.032 24.5412C154.032 23.6415 154.93 23.2198 156.089 23.2198C157.392 23.2198 158.29 23.6134 158.464 24.9066H162.81C162.578 22.0671 160.318 20.2959 156.118 20.2959C152.612 20.2959 149.715 21.8703 149.715 24.9066C149.715 28.2804 152.467 28.9551 155.046 29.3768C157.016 29.7142 158.812 29.8548 158.812 31.148C158.812 32.0758 157.914 32.5818 156.494 32.5818C154.93 32.5818 153.945 31.879 153.771 30.4452H149.31C149.454 33.6221 152.178 35.562 156.523 35.562Z" fill="#2D2D2D"/>
<path d="M169.688 35.533C171.745 35.533 173.049 34.7458 174.121 33.3401H174.208V35.1113H178.727V20.7168H174.005V28.7575C174.005 30.4725 173.02 31.6533 171.398 31.6533C169.891 31.6533 169.167 30.7817 169.167 29.2073V20.7168H164.474V30.1632C164.474 33.3682 166.27 35.533 169.688 35.533Z" fill="#2D2D2D"/>
<path d="M180.778 35.1121H185.501V27.0433C185.501 25.3284 186.37 24.1194 187.847 24.1194C189.267 24.1194 189.933 25.0191 189.933 26.5654V35.1121H194.655V27.0433C194.655 25.3284 195.495 24.1194 197.002 24.1194C198.421 24.1194 199.088 25.0191 199.088 26.5654V35.1121H203.81V25.7501C203.81 22.5169 202.13 20.2959 198.769 20.2959C196.857 20.2959 195.264 21.0831 194.105 22.8262H194.047C193.294 21.2799 191.816 20.2959 189.875 20.2959C187.731 20.2959 186.312 21.2799 185.385 22.77H185.298V20.7176H180.778V35.1121Z" fill="#2D2D2D"/>
<path fill-rule="evenodd" clip-rule="evenodd" d="M24.9826 1.85449C38.5767 1.85449 49.5969 12.549 49.5969 25.7414C49.5969 38.9339 38.5767 49.6285 24.9826 49.6285C11.3884 49.6285 0.368164 38.9339 0.368164 25.7414C0.368164 12.549 11.3884 1.85449 24.9826 1.85449ZM48.6521 25.7414C48.6521 13.0554 38.0549 2.77128 24.9826 2.77128C23.9281 2.77128 22.8898 2.83819 21.8718 2.96788C22.5295 2.91207 23.1951 2.88358 23.8677 2.88358C36.359 2.88358 46.4853 12.7106 46.4853 24.8327C46.4853 36.9548 36.359 46.7818 23.8677 46.7818C12.0418 46.7818 2.33573 37.9739 1.33525 26.7492C1.87875 38.9677 12.258 48.7116 24.9826 48.7116C38.0549 48.7116 48.6521 38.4275 48.6521 25.7414ZM45.5405 24.8327C45.5405 13.2168 35.8373 3.80038 23.8677 3.80038C22.8959 3.80038 21.9389 3.86246 21.0008 3.98276C21.5784 3.93559 22.1628 3.91153 22.7529 3.91153C34.1415 3.91153 43.3736 12.8709 43.3736 23.9228C43.3736 34.9747 34.1415 43.934 22.7529 43.934C11.9849 43.934 3.14452 35.9242 2.2134 25.7091C2.68681 36.9185 12.2007 45.865 23.8677 45.865C35.8373 45.865 45.5405 36.4485 45.5405 24.8327ZM22.7529 4.82833C33.6196 4.82833 42.4289 13.3772 42.4289 23.9228C42.4289 34.4683 33.6196 43.0172 22.7529 43.0172C12.1381 43.0172 3.48631 34.8598 3.09117 24.6523C3.94429 33.8656 11.9224 41.0862 21.6383 41.0862C31.9232 41.0862 40.2608 32.995 40.2608 23.014C40.2608 13.0329 31.9232 4.94177 21.6383 4.94177C21.1062 4.94177 20.5793 4.96343 20.0586 5.00587C20.9395 4.88881 21.8389 4.82833 22.7529 4.82833ZM39.316 23.014C39.316 13.5393 31.4015 5.85857 21.6383 5.85857C20.8134 5.85857 20.0016 5.91339 19.2068 6.0195C19.6408 5.98653 20.0795 5.96975 20.5222 5.96975C29.7044 5.96975 37.148 13.1933 37.148 22.1041C37.148 31.0148 29.7044 38.2384 20.5222 38.2384C11.8798 38.2384 4.7776 31.839 3.97257 23.6567C4.32085 32.8336 12.0968 40.1694 21.6383 40.1694C31.4015 40.1694 39.316 32.4887 39.316 23.014ZM20.5222 6.88653C29.1826 6.88653 36.2032 13.6997 36.2032 22.1041C36.2032 30.5085 29.1826 37.3217 20.5222 37.3217C12.0325 37.3217 5.11853 30.7743 4.84942 22.5989C5.57625 29.78 11.8167 35.3907 19.4075 35.3907C27.4868 35.3907 34.0363 29.0346 34.0363 21.1942C34.0363 13.3537 27.4868 6.99769 19.4075 6.99769C19.037 6.99769 18.6697 7.01105 18.3061 7.03732C19.0301 6.93793 19.77 6.88653 20.5222 6.88653ZM33.0916 21.1942C33.0916 13.86 26.965 7.91448 19.4075 7.91448C18.7176 7.91448 18.0397 7.96402 17.3772 8.05963C17.6796 8.03862 17.9849 8.02792 18.2928 8.02792C25.2685 8.02792 30.9236 13.5158 30.9236 20.2854C30.9236 27.055 25.2685 32.5428 18.2928 32.5428C11.7561 32.5428 6.37919 27.7242 5.72816 21.5475C5.92117 28.7184 11.9717 34.4739 19.4075 34.4739C26.965 34.4739 33.0916 28.5284 33.0916 21.1942ZM18.2928 8.94472C24.7468 8.94472 29.9788 14.0221 29.9788 20.2854C29.9788 26.5488 24.7468 31.6261 18.2928 31.6261C11.9209 31.6261 6.7401 26.6771 6.60926 20.524C7.19788 25.6828 11.7051 29.6951 17.1781 29.6951C23.051 29.6951 27.8119 25.0749 27.8119 19.3755C27.8119 13.6762 23.051 9.05587 17.1781 9.05587C16.9534 9.05587 16.7305 9.06263 16.5093 9.07595C17.0908 8.98954 17.6864 8.94472 18.2928 8.94472ZM26.8672 19.3755C26.8672 14.1825 22.5293 9.97267 17.1781 9.97267C16.6407 9.97267 16.1135 10.0151 15.5999 10.0968C15.753 10.0889 15.907 10.085 16.0621 10.085C20.8321 10.085 24.699 13.8376 24.699 18.4667C24.699 23.0959 20.8321 26.8485 16.0621 26.8485C11.6514 26.8485 8.01292 23.64 7.48966 19.4969C7.55666 24.6341 11.8686 28.7783 17.1781 28.7783C22.5293 28.7783 26.8672 24.5686 26.8672 19.3755ZM16.0621 11.0018C20.3104 11.0018 23.7544 14.3439 23.7544 18.4667C23.7544 22.5896 20.3104 25.9317 16.0621 25.9317C11.8137 25.9317 8.36977 22.5896 8.36977 18.4667C8.36977 18.4569 8.3698 18.4469 8.36983 18.4371C8.81214 21.5789 11.5884 23.9996 14.9473 23.9996C18.6139 23.9996 21.5863 21.1151 21.5863 17.5569C21.5863 13.9985 18.6139 11.1141 14.9473 11.1141C14.8644 11.1141 14.7819 11.1156 14.6996 11.1185C15.1418 11.0418 15.5971 11.0018 16.0621 11.0018ZM20.6415 17.5569C20.6415 14.5049 18.0922 12.0309 14.9473 12.0309C11.8025 12.0309 9.25309 14.5049 9.25309 17.5569C9.25309 20.6087 11.8025 23.0827 14.9473 23.0827C18.0922 23.0827 20.6415 20.6087 20.6415 17.5569Z" fill="#2D2D2D"/>
</g>
<defs>
<clipPath id="clip0_240_15538">
<rect width="204" height="49.2" fill="white" transform="translate(0.0136719 0.725586)"/>
</clipPath>
</defs>
</svg>
