<svg width="204" height="51" viewBox="0 0 204 51" fill="none" xmlns="http://www.w3.org/2000/svg">
<path d="M62.2305 34.6253H76.5729V30.3053H67.3281V14.0332H62.2305V34.6253Z" fill="#2D2D2D"/>
<path d="M85.0694 31.7445C83.0246 31.7445 81.959 29.9588 81.959 27.2804C81.959 24.602 83.0246 22.7876 85.0694 22.7876C87.1142 22.7876 88.2086 24.602 88.2086 27.2804C88.2086 29.9588 87.1142 31.7445 85.0694 31.7445ZM85.0982 35.0853C89.8502 35.0853 92.9606 31.7157 92.9606 27.2804C92.9606 22.8452 89.8502 19.4756 85.0982 19.4756C80.375 19.4756 77.207 22.8452 77.207 27.2804C77.207 31.7157 80.375 35.0853 85.0982 35.0853Z" fill="#2D2D2D"/>
<path d="M101.19 39.7226C103.378 39.7226 105.308 39.233 106.604 38.081C107.785 37.0154 108.562 35.4026 108.562 33.1849V19.8793H104.07V21.4633H104.012C103.148 20.2249 101.823 19.4473 99.8649 19.4473C96.2073 19.4473 93.6729 22.5001 93.6729 26.8201C93.6729 31.3417 96.7545 33.8185 100.066 33.8185C101.852 33.8185 102.975 33.0985 103.839 32.1193H103.954V33.5881C103.954 35.3738 103.119 36.4106 101.132 36.4106C99.5769 36.4106 98.7993 35.7482 98.5401 34.9706H93.9897C94.4505 38.0522 97.1289 39.7226 101.19 39.7226ZM101.161 30.3337C99.404 30.3337 98.2521 28.8937 98.2521 26.6761C98.2521 24.4297 99.404 22.9897 101.161 22.9897C103.119 22.9897 104.156 24.6601 104.156 26.6473C104.156 28.7209 103.206 30.3337 101.161 30.3337Z" fill="#2D2D2D"/>
<path d="M117.799 31.7445C115.754 31.7445 114.689 29.9588 114.689 27.2804C114.689 24.602 115.754 22.7876 117.799 22.7876C119.844 22.7876 120.938 24.602 120.938 27.2804C120.938 29.9588 119.844 31.7445 117.799 31.7445ZM117.828 35.0853C122.58 35.0853 125.69 31.7157 125.69 27.2804C125.69 22.8452 122.58 19.4756 117.828 19.4756C113.105 19.4756 109.937 22.8452 109.937 27.2804C109.937 31.7157 113.105 35.0853 117.828 35.0853Z" fill="#2D2D2D"/>
<path d="M127.06 34.6253H131.754V19.8796H127.06V34.6253ZM127.06 17.8348H131.754V14.0332H127.06V17.8348Z" fill="#2D2D2D"/>
<path d="M133.792 39.4922H138.486V33.0985H138.544C139.466 34.3369 140.819 35.0858 142.72 35.0858C146.579 35.0858 149.142 32.0329 149.142 27.2521C149.142 22.8169 146.752 19.4473 142.835 19.4473C140.819 19.4473 139.379 20.3401 138.371 21.6649H138.285V19.8793H133.792V39.4922ZM141.51 31.4569C139.494 31.4569 138.342 29.8153 138.342 27.4249C138.342 25.0345 139.379 23.2201 141.424 23.2201C143.44 23.2201 144.39 24.8905 144.39 27.4249C144.39 29.9305 143.296 31.4569 141.51 31.4569Z" fill="#2D2D2D"/>
<path d="M156.786 35.0858C160.646 35.0858 163.497 33.4153 163.497 30.1897C163.497 26.4169 160.444 25.7545 157.852 25.3225C155.98 24.9769 154.31 24.8329 154.31 23.7961C154.31 22.8745 155.202 22.4425 156.354 22.4425C157.65 22.4425 158.543 22.8457 158.716 24.1705H163.036C162.806 21.2617 160.559 19.4473 156.383 19.4473C152.898 19.4473 150.018 21.0601 150.018 24.1705C150.018 27.6265 152.754 28.3177 155.318 28.7497C157.276 29.0953 159.062 29.2393 159.062 30.5641C159.062 31.5145 158.169 32.0329 156.758 32.0329C155.202 32.0329 154.223 31.3129 154.05 29.8441H149.615C149.759 33.0985 152.466 35.0858 156.786 35.0858Z" fill="#2D2D2D"/>
<path d="M169.875 35.0566C171.92 35.0566 173.216 34.2502 174.282 32.8102H174.368V34.6246H178.861V19.8789H174.167V28.1158C174.167 29.8726 173.187 31.0822 171.575 31.0822C170.077 31.0822 169.357 30.1894 169.357 28.5766V19.8789H164.691V29.5558C164.691 32.839 166.477 35.0566 169.875 35.0566Z" fill="#2D2D2D"/>
<path d="M180.9 34.625H185.595V26.3593C185.595 24.6025 186.459 23.3641 187.928 23.3641C189.339 23.3641 190.001 24.2857 190.001 25.8697V34.625H194.696V26.3593C194.696 24.6025 195.531 23.3641 197.028 23.3641C198.44 23.3641 199.102 24.2857 199.102 25.8697V34.625H203.796V25.0345C203.796 21.7225 202.126 19.4473 198.785 19.4473C196.884 19.4473 195.3 20.2537 194.148 22.0393H194.091C193.342 20.4553 191.873 19.4473 189.944 19.4473C187.812 19.4473 186.401 20.4553 185.48 21.9817H185.393V19.8793H180.9V34.625Z" fill="#2D2D2D"/>
<path fill-rule="evenodd" clip-rule="evenodd" d="M24.8203 49.0256C38.0752 49.0256 48.8203 38.2804 48.8203 25.0255C48.8203 11.7706 38.0752 1.02539 24.8203 1.02539C11.5655 1.02539 0.820312 11.7706 0.820312 25.0255C0.820312 38.2804 11.5655 49.0256 24.8203 49.0256ZM32.3075 12.2057C32.6719 10.9111 31.4157 10.1456 30.2683 10.963L14.2521 22.373C13.0078 23.2594 13.2035 25.0255 14.5461 25.0255H18.7636V24.9928H26.9833L20.2858 27.356L17.3332 37.8454C16.9687 39.14 18.2249 39.9055 19.3723 39.088L35.3886 27.6781C36.6329 26.7917 36.4371 25.0255 35.0946 25.0255H28.6989L32.3075 12.2057Z" fill="#F15757"/>
</svg>
