<svg width="110" height="110" viewBox="0 0 110 110" fill="none" xmlns="http://www.w3.org/2000/svg">
<path d="M87.0834 34.7972C87.0834 30.4181 83.4776 26.8565 79.0737 26.8857H56.3449C55.1035 26.8857 53.9213 26.3894 53.0642 25.5428L47.1233 19.6749C46.2366 18.8283 45.0544 18.332 43.8425 18.332H27.5275C24.9856 18.332 22.9167 20.4048 22.9167 22.9154V59.582C22.9167 64.6446 27.0208 68.7487 32.0834 68.7487H77.9167C82.9794 68.7487 87.0834 64.6446 87.0834 59.582V34.7972Z" fill="white"/>
<g filter="url(#filter0_b_364_1917)">
<path fill-rule="evenodd" clip-rule="evenodd" d="M27.4999 50.418C22.4373 50.418 18.3333 54.522 18.3333 59.5846V82.5013C18.3333 87.5639 22.4373 91.668 27.4999 91.668H82.4999C87.5625 91.668 91.6666 87.5639 91.6666 82.5013V59.5846C91.6666 54.522 87.5625 50.418 82.4999 50.418H27.4999ZM58.3589 64.9682L63.3189 73.5618C63.9245 74.6288 63.1747 75.9553 61.9347 75.9553H59.8873V80.108C59.8873 80.9442 59.1952 81.6364 58.3589 81.6364H55.6193C54.783 81.6364 54.0909 80.9442 54.0909 80.108V75.9553H52.0146C50.7746 75.9553 50.0248 74.6288 50.6304 73.5618L55.5904 64.9682C56.2249 63.9012 57.7533 63.9012 58.3589 64.9682Z" fill="white" fill-opacity="0.4"/>
</g>
<defs>
<filter id="filter0_b_364_1917" x="9.16658" y="41.2513" width="91.6666" height="59.5833" filterUnits="userSpaceOnUse" color-interpolation-filters="sRGB">
<feFlood flood-opacity="0" result="BackgroundImageFix"/>
<feGaussianBlur in="BackgroundImageFix" stdDeviation="4.58333"/>
<feComposite in2="SourceAlpha" operator="in" result="effect1_backgroundBlur_364_1917"/>
<feBlend mode="normal" in="SourceGraphic" in2="effect1_backgroundBlur_364_1917" result="shape"/>
</filter>
</defs>
</svg>
