<svg width="110" height="110" viewBox="0 0 110 110" fill="none" xmlns="http://www.w3.org/2000/svg">
<path fill-rule="evenodd" clip-rule="evenodd" d="M22.9751 53.997C22.9751 36.0263 37.5425 21.459 55.5132 21.459C73.4839 21.459 88.0513 36.0263 88.0513 53.997C88.0513 71.9677 73.4839 86.5351 55.5132 86.5351C37.5425 86.5351 22.9751 71.9677 22.9751 53.997ZM32.4891 53.997C32.4891 66.708 42.8022 77.0212 55.5132 77.0212C68.2242 77.0212 78.5373 66.7338 78.5373 53.997C78.5373 41.286 68.2242 30.9729 55.5132 30.9729C42.8022 30.9729 32.4891 41.286 32.4891 53.997ZM71.5497 54.022C71.5497 62.879 64.3697 70.059 55.5127 70.059C46.6557 70.059 39.4757 62.879 39.4757 54.022C39.4757 45.165 46.6557 37.985 55.5127 37.985C64.3697 37.985 71.5497 45.165 71.5497 54.022Z" fill="white"/>
<g filter="url(#filter0_b_364_1913)">
<path d="M95.8227 27.1623H84.2203C83.7305 27.1623 83.3179 26.7498 83.3179 26.2599V14.6576C83.3179 13.8583 82.364 13.4458 81.7968 14.013L73.1595 22.6503C72.979 22.8307 72.9017 23.037 72.9017 23.2948V32.2931L52.2753 52.9194C50.8057 54.389 50.8057 56.7611 52.2753 58.2307C53.7449 59.7003 56.117 59.7003 57.5866 58.2307L78.213 37.6044H87.2112C87.4432 37.6044 87.6753 37.5012 87.8558 37.3465L96.493 28.7093C97.0087 28.1162 96.6219 27.1623 95.8227 27.1623Z" fill="white" fill-opacity="0.4"/>
</g>
<defs>
<filter id="filter0_b_364_1913" x="42.9774" y="5.55433" width="61.9453" height="61.9734" filterUnits="userSpaceOnUse" color-interpolation-filters="sRGB">
<feFlood flood-opacity="0" result="BackgroundImageFix"/>
<feGaussianBlur in="BackgroundImageFix" stdDeviation="4.09783"/>
<feComposite in2="SourceAlpha" operator="in" result="effect1_backgroundBlur_364_1913"/>
<feBlend mode="normal" in="SourceGraphic" in2="effect1_backgroundBlur_364_1913" result="shape"/>
</filter>
</defs>
</svg>
