<svg width="110" height="110" viewBox="0 0 110 110" fill="none" xmlns="http://www.w3.org/2000/svg">
<g filter="url(#filter0_b_364_1878)">
<path d="M86.6377 71.8793C86.6376 70.6861 85.7516 69.7694 84.5587 69.7694H78.2088C77.0158 69.7694 76.0495 70.7356 76.0495 71.9287C76.0495 73.1218 77.0157 74.088 78.2088 74.088H80.1974C74.2658 81.9098 64.936 86.6827 55.0012 86.6827C37.5791 86.6827 23.3196 72.4232 23.3196 55.0008C23.3196 52.3223 23.7399 49.6646 24.399 47.0993C24.6956 45.9454 24.0013 44.767 22.8455 44.4703C21.6979 44.1695 20.5133 44.868 20.2165 46.0238C19.4666 48.9392 19.001 51.9596 19.001 55.0008C19.001 74.8049 35.1972 91.0012 55.0011 91.0012C65.6318 91.0012 75.5463 86.1084 82.3087 78.1347V78.2416C82.3087 79.4345 83.2749 80.4009 84.468 80.4009C85.6611 80.4009 86.6273 79.4346 86.6273 78.2416L86.6376 72.178C86.6522 72.0792 86.6377 71.9803 86.6377 71.8793Z" fill="white" fill-opacity="0.4"/>
</g>
<g filter="url(#filter1_b_364_1878)">
<path d="M55.0014 19C44.3705 19 34.4354 23.8928 27.6731 31.8665V31.7925C27.6731 30.5996 26.7069 29.6332 25.5138 29.6332C24.3207 29.6332 23.3545 30.5994 23.3545 31.7925V38.1425V38.1487C23.359 39.4616 24.4757 40.4031 25.763 40.2153H31.8141C32.9906 40.3823 33.9734 39.2491 33.9734 38.056C33.9734 36.8629 33.0072 35.8967 31.8141 35.8967H29.8053C35.7367 28.0748 45.0665 23.3182 55.0014 23.3182C72.4236 23.3182 86.683 37.5777 86.683 55.0001C86.683 57.6786 86.2627 60.3363 85.6036 62.9016C85.307 64.0555 86.0013 65.2339 87.1571 65.5306C88.286 65.829 89.4842 65.1474 89.7861 63.9771C90.536 61.0617 91.0016 58.0413 91.0016 55.0002C91.0014 35.1964 74.8052 19 55.0014 19Z" fill="white" fill-opacity="0.4"/>
</g>
<g filter="url(#filter2_b_364_1878)">
<path d="M71.563 41.0205L64.9797 34.4372C64.0595 33.517 62.8114 33 61.51 33H50.692C47.982 33 45.7852 35.1969 45.7852 37.9068V63.7043C45.7852 66.4143 47.982 68.6112 50.692 68.6112H68.0934C70.8033 68.6112 73.0002 66.4143 73.0002 63.7043V44.4902C73.0002 43.1888 72.4832 41.9407 71.563 41.0205Z" fill="white" fill-opacity="0.4"/>
</g>
<g filter="url(#filter3_d_364_1878)">
<path d="M63.6387 40.6478V33.1914C67.2213 36.6124 69.1328 38.5063 72.7104 42.1666H65.1575C64.3187 42.1666 63.6387 41.4866 63.6387 40.6478Z" fill="url(#paint0_linear_364_1878)"/>
</g>
<g filter="url(#filter4_d_364_1878)">
<rect x="49.7423" y="46.5117" width="13.511" height="0.386029" rx="0.193015" fill="url(#paint1_linear_364_1878)"/>
</g>
<g filter="url(#filter5_d_364_1878)">
<rect x="49.7422" y="48.8262" width="18.5294" height="0.386029" rx="0.193015" fill="url(#paint2_linear_364_1878)"/>
</g>
<g filter="url(#filter6_d_364_1878)">
<rect x="49.7412" y="51.1445" width="18.5294" height="0.386029" rx="0.193015" fill="url(#paint3_linear_364_1878)"/>
</g>
<g filter="url(#filter7_d_364_1878)">
<rect x="49.7412" y="53.4609" width="6.56249" height="0.386029" rx="0.193015" fill="url(#paint4_linear_364_1878)"/>
</g>
<g filter="url(#filter8_d_364_1878)">
<path d="M62.7779 49.8057L56.1945 43.2223C55.2743 42.3021 54.0262 41.7852 52.7249 41.7852H41.9068C39.1969 41.7852 37 43.982 37 46.692V72.4895C37 75.1995 39.1969 77.3963 41.9068 77.3963H59.3082C62.0182 77.3963 64.215 75.1995 64.215 72.4895V53.2753C64.215 51.974 63.6981 50.7259 62.7779 49.8057Z" fill="url(#paint5_linear_364_1878)"/>
</g>
<g filter="url(#filter9_d_364_1878)">
<path d="M54.8535 49.433V41.9766C58.4362 45.3975 60.3477 47.2915 63.9252 50.9517H56.3723C55.5335 50.9517 54.8535 50.2718 54.8535 49.433Z" fill="url(#paint6_linear_364_1878)"/>
</g>
<g filter="url(#filter10_d_364_1878)">
<rect x="40.9563" y="55.2969" width="13.511" height="0.386029" rx="0.193015" fill="url(#paint7_linear_364_1878)"/>
</g>
<g filter="url(#filter11_d_364_1878)">
<rect x="40.957" y="57.6113" width="18.5294" height="0.386029" rx="0.193015" fill="url(#paint8_linear_364_1878)"/>
</g>
<g filter="url(#filter12_d_364_1878)">
<rect x="40.957" y="59.9297" width="18.5294" height="0.386029" rx="0.193015" fill="url(#paint9_linear_364_1878)"/>
</g>
<g filter="url(#filter13_d_364_1878)">
<rect x="40.957" y="62.2461" width="6.56249" height="0.386029" rx="0.193015" fill="url(#paint10_linear_364_1878)"/>
</g>
<defs>
<filter id="filter0_b_364_1878" x="13.7646" y="39.164" width="78.116" height="57.0744" filterUnits="userSpaceOnUse" color-interpolation-filters="sRGB">
<feFlood flood-opacity="0" result="BackgroundImageFix"/>
<feGaussianBlur in="BackgroundImageFix" stdDeviation="2.6182"/>
<feComposite in2="SourceAlpha" operator="in" result="effect1_backgroundBlur_364_1878"/>
<feBlend mode="normal" in="SourceGraphic" in2="effect1_backgroundBlur_364_1878" result="shape"/>
</filter>
<filter id="filter1_b_364_1878" x="18.1181" y="13.7636" width="78.1199" height="57.0744" filterUnits="userSpaceOnUse" color-interpolation-filters="sRGB">
<feFlood flood-opacity="0" result="BackgroundImageFix"/>
<feGaussianBlur in="BackgroundImageFix" stdDeviation="2.6182"/>
<feComposite in2="SourceAlpha" operator="in" result="effect1_backgroundBlur_364_1878"/>
<feBlend mode="normal" in="SourceGraphic" in2="effect1_backgroundBlur_364_1878" result="shape"/>
</filter>
<filter id="filter2_b_364_1878" x="37.7852" y="25" width="43.2151" height="51.6113" filterUnits="userSpaceOnUse" color-interpolation-filters="sRGB">
<feFlood flood-opacity="0" result="BackgroundImageFix"/>
<feGaussianBlur in="BackgroundImageFix" stdDeviation="4"/>
<feComposite in2="SourceAlpha" operator="in" result="effect1_backgroundBlur_364_1878"/>
<feBlend mode="normal" in="SourceGraphic" in2="effect1_backgroundBlur_364_1878" result="shape"/>
</filter>
<filter id="filter3_d_364_1878" x="62.1199" y="32.8409" width="11.4082" height="11.3112" filterUnits="userSpaceOnUse" color-interpolation-filters="sRGB">
<feFlood flood-opacity="0" result="BackgroundImageFix"/>
<feColorMatrix in="SourceAlpha" type="matrix" values="0 0 0 0 0 0 0 0 0 0 0 0 0 0 0 0 0 0 127 0" result="hardAlpha"/>
<feOffset dx="-0.350489" dy="0.817808"/>
<feGaussianBlur stdDeviation="0.584148"/>
<feComposite in2="hardAlpha" operator="out"/>
<feColorMatrix type="matrix" values="0 0 0 0 0.462745 0 0 0 0 0.556863 0 0 0 0 0.690196 0 0 0 0.15 0"/>
<feBlend mode="normal" in2="BackgroundImageFix" result="effect1_dropShadow_364_1878"/>
<feBlend mode="normal" in="SourceGraphic" in2="effect1_dropShadow_364_1878" result="shape"/>
</filter>
<filter id="filter4_d_364_1878" x="49.0413" y="46.1612" width="14.4456" height="1.32136" filterUnits="userSpaceOnUse" color-interpolation-filters="sRGB">
<feFlood flood-opacity="0" result="BackgroundImageFix"/>
<feColorMatrix in="SourceAlpha" type="matrix" values="0 0 0 0 0 0 0 0 0 0 0 0 0 0 0 0 0 0 127 0" result="hardAlpha"/>
<feOffset dx="-0.233659" dy="0.11683"/>
<feGaussianBlur stdDeviation="0.233659"/>
<feComposite in2="hardAlpha" operator="out"/>
<feColorMatrix type="matrix" values="0 0 0 0 0.862745 0 0 0 0 0.894118 0 0 0 0 0.937255 0 0 0 1 0"/>
<feBlend mode="normal" in2="BackgroundImageFix" result="effect1_dropShadow_364_1878"/>
<feBlend mode="normal" in="SourceGraphic" in2="effect1_dropShadow_364_1878" result="shape"/>
</filter>
<filter id="filter5_d_364_1878" x="49.0412" y="48.4757" width="19.4641" height="1.32136" filterUnits="userSpaceOnUse" color-interpolation-filters="sRGB">
<feFlood flood-opacity="0" result="BackgroundImageFix"/>
<feColorMatrix in="SourceAlpha" type="matrix" values="0 0 0 0 0 0 0 0 0 0 0 0 0 0 0 0 0 0 127 0" result="hardAlpha"/>
<feOffset dx="-0.233659" dy="0.11683"/>
<feGaussianBlur stdDeviation="0.233659"/>
<feComposite in2="hardAlpha" operator="out"/>
<feColorMatrix type="matrix" values="0 0 0 0 0.862745 0 0 0 0 0.894118 0 0 0 0 0.937255 0 0 0 1 0"/>
<feBlend mode="normal" in2="BackgroundImageFix" result="effect1_dropShadow_364_1878"/>
<feBlend mode="normal" in="SourceGraphic" in2="effect1_dropShadow_364_1878" result="shape"/>
</filter>
<filter id="filter6_d_364_1878" x="49.0402" y="50.794" width="19.4641" height="1.32136" filterUnits="userSpaceOnUse" color-interpolation-filters="sRGB">
<feFlood flood-opacity="0" result="BackgroundImageFix"/>
<feColorMatrix in="SourceAlpha" type="matrix" values="0 0 0 0 0 0 0 0 0 0 0 0 0 0 0 0 0 0 127 0" result="hardAlpha"/>
<feOffset dx="-0.233659" dy="0.11683"/>
<feGaussianBlur stdDeviation="0.233659"/>
<feComposite in2="hardAlpha" operator="out"/>
<feColorMatrix type="matrix" values="0 0 0 0 0.862745 0 0 0 0 0.894118 0 0 0 0 0.937255 0 0 0 1 0"/>
<feBlend mode="normal" in2="BackgroundImageFix" result="effect1_dropShadow_364_1878"/>
<feBlend mode="normal" in="SourceGraphic" in2="effect1_dropShadow_364_1878" result="shape"/>
</filter>
<filter id="filter7_d_364_1878" x="49.0402" y="53.1104" width="7.49714" height="1.32136" filterUnits="userSpaceOnUse" color-interpolation-filters="sRGB">
<feFlood flood-opacity="0" result="BackgroundImageFix"/>
<feColorMatrix in="SourceAlpha" type="matrix" values="0 0 0 0 0 0 0 0 0 0 0 0 0 0 0 0 0 0 127 0" result="hardAlpha"/>
<feOffset dx="-0.233659" dy="0.11683"/>
<feGaussianBlur stdDeviation="0.233659"/>
<feComposite in2="hardAlpha" operator="out"/>
<feColorMatrix type="matrix" values="0 0 0 0 0.862745 0 0 0 0 0.894118 0 0 0 0 0.937255 0 0 0 1 0"/>
<feBlend mode="normal" in2="BackgroundImageFix" result="effect1_dropShadow_364_1878"/>
<feBlend mode="normal" in="SourceGraphic" in2="effect1_dropShadow_364_1878" result="shape"/>
</filter>
<filter id="filter8_d_364_1878" x="35.8317" y="40.6169" width="31.8883" height="40.2845" filterUnits="userSpaceOnUse" color-interpolation-filters="sRGB">
<feFlood flood-opacity="0" result="BackgroundImageFix"/>
<feColorMatrix in="SourceAlpha" type="matrix" values="0 0 0 0 0 0 0 0 0 0 0 0 0 0 0 0 0 0 127 0" result="hardAlpha"/>
<feOffset dx="1.16829" dy="1.16829"/>
<feGaussianBlur stdDeviation="1.16829"/>
<feComposite in2="hardAlpha" operator="out"/>
<feColorMatrix type="matrix" values="0 0 0 0 0.462745 0 0 0 0 0.556863 0 0 0 0 0.690196 0 0 0 0.25 0"/>
<feBlend mode="normal" in2="BackgroundImageFix" result="effect1_dropShadow_364_1878"/>
<feBlend mode="normal" in="SourceGraphic" in2="effect1_dropShadow_364_1878" result="shape"/>
</filter>
<filter id="filter9_d_364_1878" x="53.3347" y="41.6261" width="11.4082" height="11.3112" filterUnits="userSpaceOnUse" color-interpolation-filters="sRGB">
<feFlood flood-opacity="0" result="BackgroundImageFix"/>
<feColorMatrix in="SourceAlpha" type="matrix" values="0 0 0 0 0 0 0 0 0 0 0 0 0 0 0 0 0 0 127 0" result="hardAlpha"/>
<feOffset dx="-0.350489" dy="0.817808"/>
<feGaussianBlur stdDeviation="0.584148"/>
<feComposite in2="hardAlpha" operator="out"/>
<feColorMatrix type="matrix" values="0 0 0 0 0.462745 0 0 0 0 0.556863 0 0 0 0 0.690196 0 0 0 0.15 0"/>
<feBlend mode="normal" in2="BackgroundImageFix" result="effect1_dropShadow_364_1878"/>
<feBlend mode="normal" in="SourceGraphic" in2="effect1_dropShadow_364_1878" result="shape"/>
</filter>
<filter id="filter10_d_364_1878" x="40.2553" y="54.9464" width="14.4456" height="1.32136" filterUnits="userSpaceOnUse" color-interpolation-filters="sRGB">
<feFlood flood-opacity="0" result="BackgroundImageFix"/>
<feColorMatrix in="SourceAlpha" type="matrix" values="0 0 0 0 0 0 0 0 0 0 0 0 0 0 0 0 0 0 127 0" result="hardAlpha"/>
<feOffset dx="-0.233659" dy="0.11683"/>
<feGaussianBlur stdDeviation="0.233659"/>
<feComposite in2="hardAlpha" operator="out"/>
<feColorMatrix type="matrix" values="0 0 0 0 0.862745 0 0 0 0 0.894118 0 0 0 0 0.937255 0 0 0 1 0"/>
<feBlend mode="normal" in2="BackgroundImageFix" result="effect1_dropShadow_364_1878"/>
<feBlend mode="normal" in="SourceGraphic" in2="effect1_dropShadow_364_1878" result="shape"/>
</filter>
<filter id="filter11_d_364_1878" x="40.2561" y="57.2608" width="19.4641" height="1.32136" filterUnits="userSpaceOnUse" color-interpolation-filters="sRGB">
<feFlood flood-opacity="0" result="BackgroundImageFix"/>
<feColorMatrix in="SourceAlpha" type="matrix" values="0 0 0 0 0 0 0 0 0 0 0 0 0 0 0 0 0 0 127 0" result="hardAlpha"/>
<feOffset dx="-0.233659" dy="0.11683"/>
<feGaussianBlur stdDeviation="0.233659"/>
<feComposite in2="hardAlpha" operator="out"/>
<feColorMatrix type="matrix" values="0 0 0 0 0.862745 0 0 0 0 0.894118 0 0 0 0 0.937255 0 0 0 1 0"/>
<feBlend mode="normal" in2="BackgroundImageFix" result="effect1_dropShadow_364_1878"/>
<feBlend mode="normal" in="SourceGraphic" in2="effect1_dropShadow_364_1878" result="shape"/>
</filter>
<filter id="filter12_d_364_1878" x="40.2561" y="59.5792" width="19.4641" height="1.32136" filterUnits="userSpaceOnUse" color-interpolation-filters="sRGB">
<feFlood flood-opacity="0" result="BackgroundImageFix"/>
<feColorMatrix in="SourceAlpha" type="matrix" values="0 0 0 0 0 0 0 0 0 0 0 0 0 0 0 0 0 0 127 0" result="hardAlpha"/>
<feOffset dx="-0.233659" dy="0.11683"/>
<feGaussianBlur stdDeviation="0.233659"/>
<feComposite in2="hardAlpha" operator="out"/>
<feColorMatrix type="matrix" values="0 0 0 0 0.862745 0 0 0 0 0.894118 0 0 0 0 0.937255 0 0 0 1 0"/>
<feBlend mode="normal" in2="BackgroundImageFix" result="effect1_dropShadow_364_1878"/>
<feBlend mode="normal" in="SourceGraphic" in2="effect1_dropShadow_364_1878" result="shape"/>
</filter>
<filter id="filter13_d_364_1878" x="40.2561" y="61.8956" width="7.49714" height="1.32136" filterUnits="userSpaceOnUse" color-interpolation-filters="sRGB">
<feFlood flood-opacity="0" result="BackgroundImageFix"/>
<feColorMatrix in="SourceAlpha" type="matrix" values="0 0 0 0 0 0 0 0 0 0 0 0 0 0 0 0 0 0 127 0" result="hardAlpha"/>
<feOffset dx="-0.233659" dy="0.11683"/>
<feGaussianBlur stdDeviation="0.233659"/>
<feComposite in2="hardAlpha" operator="out"/>
<feColorMatrix type="matrix" values="0 0 0 0 0.862745 0 0 0 0 0.894118 0 0 0 0 0.937255 0 0 0 1 0"/>
<feBlend mode="normal" in2="BackgroundImageFix" result="effect1_dropShadow_364_1878"/>
<feBlend mode="normal" in="SourceGraphic" in2="effect1_dropShadow_364_1878" result="shape"/>
</filter>
<linearGradient id="paint0_linear_364_1878" x1="63.8317" y1="33.6739" x2="71.0697" y2="43.3247" gradientUnits="userSpaceOnUse">
<stop stop-color="#E8F0FA"/>
<stop offset="1" stop-color="#D3DFED"/>
</linearGradient>
<linearGradient id="paint1_linear_364_1878" x1="63.2533" y1="46.6772" x2="49.7423" y2="46.6772" gradientUnits="userSpaceOnUse">
<stop stop-color="#F4F8FE"/>
<stop offset="0.859375" stop-color="#E5ECF6"/>
</linearGradient>
<linearGradient id="paint2_linear_364_1878" x1="68.2716" y1="48.9916" x2="49.7422" y2="48.9916" gradientUnits="userSpaceOnUse">
<stop stop-color="#F4F8FE"/>
<stop offset="0.859375" stop-color="#E5ECF6"/>
</linearGradient>
<linearGradient id="paint3_linear_364_1878" x1="68.2706" y1="51.31" x2="49.7412" y2="51.31" gradientUnits="userSpaceOnUse">
<stop stop-color="#F4F8FE"/>
<stop offset="0.859375" stop-color="#E5ECF6"/>
</linearGradient>
<linearGradient id="paint4_linear_364_1878" x1="56.3037" y1="53.6264" x2="49.7412" y2="53.6264" gradientUnits="userSpaceOnUse">
<stop stop-color="#F4F8FE"/>
<stop offset="0.859375" stop-color="#E5ECF6"/>
</linearGradient>
<linearGradient id="paint5_linear_364_1878" x1="50.6075" y1="41.7852" x2="50.6075" y2="77.3963" gradientUnits="userSpaceOnUse">
<stop stop-color="white"/>
<stop offset="1" stop-color="white"/>
</linearGradient>
<linearGradient id="paint6_linear_364_1878" x1="55.0465" y1="42.4591" x2="62.2846" y2="52.1098" gradientUnits="userSpaceOnUse">
<stop stop-color="#E8F0FA"/>
<stop offset="1" stop-color="#D3DFED"/>
</linearGradient>
<linearGradient id="paint7_linear_364_1878" x1="54.4673" y1="55.4623" x2="40.9563" y2="55.4623" gradientUnits="userSpaceOnUse">
<stop stop-color="#F4F8FE"/>
<stop offset="0.859375" stop-color="#E5ECF6"/>
</linearGradient>
<linearGradient id="paint8_linear_364_1878" x1="59.4864" y1="57.7768" x2="40.957" y2="57.7768" gradientUnits="userSpaceOnUse">
<stop stop-color="#F4F8FE"/>
<stop offset="0.859375" stop-color="#E5ECF6"/>
</linearGradient>
<linearGradient id="paint9_linear_364_1878" x1="59.4864" y1="60.0951" x2="40.957" y2="60.0951" gradientUnits="userSpaceOnUse">
<stop stop-color="#F4F8FE"/>
<stop offset="0.859375" stop-color="#E5ECF6"/>
</linearGradient>
<linearGradient id="paint10_linear_364_1878" x1="47.5195" y1="62.4115" x2="40.957" y2="62.4115" gradientUnits="userSpaceOnUse">
<stop stop-color="#F4F8FE"/>
<stop offset="0.859375" stop-color="#E5ECF6"/>
</linearGradient>
</defs>
</svg>
