<svg width="110" height="110" viewBox="0 0 110 110" fill="none" xmlns="http://www.w3.org/2000/svg">
<path fill-rule="evenodd" clip-rule="evenodd" d="M66.6625 87.7236C66.3333 88.6213 65.5253 89.2498 64.5677 89.3096C63.3407 89.3994 62.1138 89.4294 60.9168 89.4294C60.7237 89.4233 60.5356 89.3942 60.355 89.3442C59.5164 89.2182 58.8014 88.6522 58.4509 87.8433C57.2239 85.0302 54.9496 82.6661 51.8672 81.4691C51.7766 81.4388 51.6872 81.4086 51.5985 81.3787C51.3051 81.2796 51.0197 81.1831 50.7244 81.0983C48.0815 80.4439 45.3657 80.7373 42.9911 81.7982C42.1532 82.1873 41.1357 82.0077 40.4175 81.4092C39.7292 80.8107 38.7416 79.8231 37.9635 79.0151C37.2154 78.237 36.976 77.0999 37.365 76.0824C38.4424 73.2694 38.4424 70.0673 37.1556 67.1046C37.0146 66.7883 36.8619 66.4812 36.6981 66.1835C36.6784 66.2021 36.6587 66.2206 36.6392 66.2389C36.5861 66.2887 36.5341 66.3376 36.4853 66.3864C35.1087 63.693 32.8343 61.7478 30.1709 60.7304C29.303 60.4012 28.6447 59.5932 28.5848 58.6355C28.4951 57.4086 28.495 56.2116 28.525 54.9846C28.5549 54.027 29.1534 53.189 30.0512 52.8C32.8643 51.573 35.2284 49.2986 36.4254 46.2163C37.6225 43.1638 37.4728 39.872 36.216 37.0889C35.8269 36.1911 35.9466 35.1736 36.5751 34.4255C37.3831 33.4977 38.221 32.6299 39.1188 31.792C39.8071 31.1635 40.8245 30.984 41.6924 31.3431C44.5353 32.4803 47.8272 32.5102 50.8497 31.1935C53.8723 29.8767 56.0568 27.4527 57.1641 24.5798C57.4933 23.6821 58.3013 23.0536 59.2589 22.9938C60.0858 22.9333 60.9126 22.9135 61.7395 22.9163C62.2311 22.9146 62.7236 22.9218 63.221 22.9339C64.1787 22.9638 65.0166 23.5624 65.4057 24.4602C66.6326 27.2732 68.907 29.6373 71.9894 30.8344C72.8905 31.1878 73.8125 31.4238 74.7362 31.5486C76.8424 31.7721 78.9324 31.4208 80.8056 30.595C81.2608 30.3909 81.7655 30.3268 82.2461 30.4027C82.7981 30.4175 83.3365 30.6113 83.7802 30.984C84.7079 31.792 85.5757 32.6299 86.4137 33.5277C87.0421 34.216 87.2216 35.2335 86.8625 36.1013C85.7254 38.9443 85.6954 42.2362 87.0122 45.2587C88.3289 48.2812 90.7529 50.4658 93.6258 51.573C94.5236 51.9022 95.152 52.7102 95.2119 53.6679C95.3017 54.8948 95.3016 56.1218 95.2717 57.3487C95.2418 58.3064 94.6433 59.1443 93.7455 59.5333C90.9325 60.7304 88.5983 63.0048 87.4012 66.0871C86.2042 69.1695 86.3837 72.4314 87.6107 75.2145C87.9997 76.0824 87.88 77.1298 87.2516 77.848C86.4735 78.7757 85.6057 79.6735 84.7079 80.5114C84.0352 81.1256 83.0482 81.311 82.1937 80.984C82.0184 80.9535 81.8442 80.9059 81.6735 80.8406C81.0689 80.6091 80.4463 80.4273 79.812 80.2973C77.5791 79.9005 75.2048 80.1394 72.9769 81.1099C69.9544 82.4267 67.7698 84.8507 66.6625 87.7236ZM55.8593 41.9369C48.0187 45.3784 44.4276 54.5058 47.8691 62.3464C50.3771 68.1105 55.9905 71.5779 61.9031 71.6428C63.9221 71.6208 65.9703 71.2 67.9374 70.3366C75.778 66.925 79.3691 57.7677 75.9277 49.9271C73.3981 44.1641 67.7967 40.6969 61.8923 40.6307C59.8727 40.6534 57.8246 41.0742 55.8593 41.9369Z" fill="white"/>
<g filter="url(#filter0_b_364_1874)">
<path fill-rule="evenodd" clip-rule="evenodd" d="M58.1146 76.1729C58.4723 76.5051 58.6336 76.99 58.58 77.46C58.5606 77.5267 58.5355 77.5931 58.5045 77.6587C58.265 78.4069 57.9957 79.1251 57.6965 79.8433C57.5533 80.1654 57.3031 80.4234 56.997 80.5851C56.8262 80.6639 56.638 80.7112 56.4387 80.7217C55.2161 80.7571 54.0566 81.0758 53.022 81.6466C52.2948 82.0344 51.6178 82.5506 51.023 83.195C49.6164 84.7512 48.9581 86.7262 49.0479 88.6714C49.0688 89.0907 48.9283 89.4953 48.6571 89.7926C48.5539 89.8968 48.4337 89.9871 48.2988 90.0585C47.3412 90.5673 46.3237 91.0162 45.2763 91.3753C43.7202 89.5797 41.5057 88.5922 39.1415 88.682C37.2983 88.7621 35.5982 89.4622 34.2753 90.6971C34.1049 90.8523 33.9415 91.0152 33.7856 91.1852C33.7183 91.2573 33.6456 91.3225 33.5686 91.3803C33.1974 91.6406 32.7234 91.7298 32.2885 91.5848C31.5702 91.3753 30.8221 91.106 30.1338 90.8067C29.6251 90.5673 29.2959 90.0885 29.266 89.5199C29.2061 87.455 28.3382 85.5398 26.812 84.1332C25.4055 82.8464 23.58 82.1282 21.6648 82.1282H21.6646C21.5151 82.1282 21.3954 82.1282 21.2458 82.0983C20.7071 82.1282 20.1685 81.8289 19.8991 81.3202C19.54 80.6618 19.2108 79.9735 18.9415 79.2553C18.732 78.7166 18.8517 78.1181 19.2408 77.6992C20.6473 76.2029 21.3954 74.2577 21.3057 72.1928C21.2458 70.1279 20.348 68.2425 18.8218 66.8659C18.4028 66.4769 18.2233 65.8784 18.4028 65.3397C18.6123 64.6215 18.8816 63.8734 19.1809 63.1851C19.4203 62.6763 19.8991 62.3471 20.4677 62.3172C22.5326 62.2574 24.4479 61.3895 25.8544 59.8633C27.2609 58.3371 27.9791 56.3619 27.8594 54.2971C27.8295 53.7584 28.1288 53.2197 28.6375 52.9504C29.3258 52.5913 30.0141 52.2621 30.7323 51.9928C31.271 51.7833 31.8695 51.903 32.2885 52.292C33.7848 53.6986 35.73 54.4467 37.7948 54.3569C39.8597 54.2672 41.745 53.3993 43.1216 51.8731C43.5107 51.4541 44.1092 51.2745 44.6479 51.4541C45.3661 51.6935 46.1142 51.9629 46.8025 52.2621C47.3113 52.5015 47.6405 52.9803 47.6704 53.5489C47.7303 55.6138 48.5981 57.4991 50.1243 58.9057C51.6206 60.3122 53.5957 61.0005 55.6606 60.9107C56.2292 60.8808 56.7379 61.18 57.0073 61.6888C57.3664 62.3771 57.6956 63.0654 57.9649 63.7836C58.1744 64.3223 58.0547 64.9208 57.6657 65.3397C56.2891 66.836 55.5409 68.7812 55.6307 70.8461C55.7205 72.911 56.5883 74.7964 58.1146 76.1729ZM25.7356 59.763C25.7999 59.6947 25.8626 59.6254 25.9236 59.5552C25.8527 59.6391 25.7798 59.7219 25.7048 59.8034C24.3581 61.2997 22.4728 62.1377 20.4677 62.1975C19.8771 62.1975 19.3129 62.5412 19.0484 63.0794C19.2953 62.5604 19.8234 62.2162 20.4088 62.187C22.3839 62.1271 24.2991 61.3191 25.7356 59.763ZM19.092 77.5988C19.7819 76.8783 20.3226 76.0163 20.6738 75.0653C20.3345 76.0097 19.8002 76.884 19.0911 77.6393C18.8784 77.8672 18.7351 78.1569 18.6769 78.4651C18.7209 78.1485 18.861 77.8464 19.092 77.5988ZM44.4464 71.2672C44.5806 74.5866 41.9984 77.3862 38.679 77.5204C35.3596 77.6545 32.56 75.0724 32.4258 71.753C32.2917 68.4336 34.8738 65.6339 38.1932 65.4998C41.5126 65.3656 44.3122 67.9478 44.4464 71.2672Z" fill="white" fill-opacity="0.4"/>
</g>
<defs>
<filter id="filter0_b_364_1874" x="8.00183" y="41.0531" width="60.9199" height="60.9329" filterUnits="userSpaceOnUse" color-interpolation-filters="sRGB">
<feFlood flood-opacity="0" result="BackgroundImageFix"/>
<feGaussianBlur in="BackgroundImageFix" stdDeviation="5.16584"/>
<feComposite in2="SourceAlpha" operator="in" result="effect1_backgroundBlur_364_1874"/>
<feBlend mode="normal" in="SourceGraphic" in2="effect1_backgroundBlur_364_1874" result="shape"/>
</filter>
</defs>
</svg>
