<svg width="110" height="110" viewBox="0 0 110 110" fill="none" xmlns="http://www.w3.org/2000/svg">
<path d="M36.1028 52.0408C36.1028 50.4836 37.3716 49.1859 38.9288 49.1859C41.38 49.1571 44.8983 49.1282 47.3783 49.1282C55.5682 49.1282 63.6715 41.0537 64.7962 25.193C64.8827 24.1549 65.6325 23.2609 66.6418 23.059C72.6688 21.7902 75.4949 29.2591 74.7163 33.8155C73.8512 38.8044 70.7368 48.2919 70.7368 48.2919C70.7368 48.2919 78.8402 48.2919 85.7323 48.2919C92.6245 48.2919 91.6152 53.3385 90.8654 57.9814C87.5779 77.7063 87.3184 82.6375 80.0801 82.6375C72.8419 82.6375 58.8556 82.6375 54.53 82.6375C47.0322 82.6375 46.3401 79.3789 38.7558 78.7733C37.2562 78.6579 36.1028 77.4179 36.1028 75.9184V52.0408Z" fill="white"/>
<g filter="url(#filter0_b_364_1909)">
<path fill-rule="evenodd" clip-rule="evenodd" d="M26.4944 42.9141C21.9957 42.9141 18.3333 46.5764 18.3333 51.0751V76.3657C18.3333 80.8644 21.9957 84.5267 26.4944 84.5267H40.4518C44.9504 84.5267 48.6128 80.8644 48.6128 76.3657V51.0751C48.6128 46.5764 44.9504 42.9141 40.4518 42.9141H26.4944ZM30.1227 75.4127C30.1227 77.3717 28.5345 78.9597 26.5755 78.9597C24.6166 78.9597 23.0286 77.3717 23.0286 75.4127C23.0286 73.4537 24.6166 71.8657 26.5755 71.8657C28.5345 71.8657 30.1227 73.4537 30.1227 75.4127Z" fill="white" fill-opacity="0.4"/>
</g>
<defs>
<filter id="filter0_b_364_1909" x="9.16658" y="33.7474" width="48.6129" height="59.9466" filterUnits="userSpaceOnUse" color-interpolation-filters="sRGB">
<feFlood flood-opacity="0" result="BackgroundImageFix"/>
<feGaussianBlur in="BackgroundImageFix" stdDeviation="4.58333"/>
<feComposite in2="SourceAlpha" operator="in" result="effect1_backgroundBlur_364_1909"/>
<feBlend mode="normal" in="SourceGraphic" in2="effect1_backgroundBlur_364_1909" result="shape"/>
</filter>
</defs>
</svg>
